<?xml version="1.0" encoding="UTF-8" standalone="no"?>
<svg width="361.244mm" height="426.156mm"
 viewBox="0 0 1024 1208"
 xmlns="http://www.w3.org/2000/svg" xmlns:xlink="http://www.w3.org/1999/xlink"  version="1.2" baseProfile="tiny">
<title>github-label-preset</title>
<desc>Generated with Qt</desc>
<defs>
</defs>
<g fill="none" stroke="black" stroke-width="1" fill-rule="evenodd" stroke-linecap="square" stroke-linejoin="bevel" >

<g fill="#ffffff" fill-opacity="1" stroke="none" transform="matrix(1,0,0,1,0,0)"
font-family="Helvetica" font-size="12" font-weight="400" font-style="normal"
>
<path vector-effect="non-scaling-stroke" fill-rule="evenodd" d="M0,0 L1024,0 L1024,1208 L0,1208 L0,0"/>
<path vector-effect="non-scaling-stroke" fill-rule="evenodd" d="M0,0 L1024,0 L1024,1208 L0,1208 L0,0"/>
<path vector-effect="non-scaling-stroke" fill-rule="evenodd" d="M0,0 L1024,0 L1024,1208 L0,1208 L0,0"/>
</g>

<g fill="#d73a4a" fill-opacity="1" stroke="none" transform="matrix(1,0,0,1,0,0)"
font-family="Helvetica" font-size="12" font-weight="400" font-style="normal"
>
<path vector-effect="non-scaling-stroke" fill-rule="evenodd" d="M24,18 L155,18 C158.312,18 161,20.688 161,24 L161,112 C161,115.312 158.312,118 155,118 L24,118 C20.688,118 18,115.312 18,112 L18,24 C18,20.688 20.688,18 24,18 "/>
</g>

<g fill="#ffffff" fill-opacity="1" stroke="#ffffff" stroke-opacity="1" stroke-width="1" stroke-linecap="square" stroke-linejoin="bevel" transform="matrix(1,0,0,1,0,0)"
font-family="Arial" font-size="50" font-weight="700" font-style="normal"
>
<text fill="#ffffff" fill-opacity="1" stroke="none" xml:space="preserve" x="43" y="85" font-family="Arial" font-size="50" font-weight="700" font-style="normal"
 >bug</text>
</g>

<g fill="#d73a4a" fill-opacity="1" stroke="none" transform="matrix(1,0,0,1,0,0)"
font-family="Arial" font-size="50" font-weight="700" font-style="normal"
>
<path vector-effect="non-scaling-stroke" fill-rule="evenodd" d="M187,18 L418,18 C421.312,18 424,20.688 424,24 L424,112 C424,115.312 421.312,118 418,118 L187,118 C183.688,118 181,115.312 181,112 L181,24 C181,20.688 183.688,18 187,18 "/>
</g>

<g fill="#ffffff" fill-opacity="1" stroke="#ffffff" stroke-opacity="1" stroke-width="1" stroke-linecap="square" stroke-linejoin="bevel" transform="matrix(1,0,0,1,0,0)"
font-family="Arial" font-size="50" font-weight="700" font-style="normal"
>
<text fill="#ffffff" fill-opacity="1" stroke="none" xml:space="preserve" x="206" y="85" font-family="Arial" font-size="50" font-weight="700" font-style="normal"
 >security</text>
</g>

<g fill="#50e09a" fill-opacity="1" stroke="none" transform="matrix(1,0,0,1,0,0)"
font-family="Arial" font-size="50" font-weight="700" font-style="normal"
>
<path vector-effect="non-scaling-stroke" fill-rule="evenodd" d="M450,18 L752,18 C755.312,18 758,20.688 758,24 L758,112 C758,115.312 755.312,118 752,118 L450,118 C446.688,118 444,115.312 444,112 L444,24 C444,20.688 446.688,18 450,18 "/>
</g>

<g fill="#000000" fill-opacity="1" stroke="#000000" stroke-opacity="1" stroke-width="1" stroke-linecap="square" stroke-linejoin="bevel" transform="matrix(1,0,0,1,0,0)"
font-family="Arial" font-size="50" font-weight="700" font-style="normal"
>
<text fill="#000000" fill-opacity="1" stroke="none" xml:space="preserve" x="469" y="85" font-family="Arial" font-size="50" font-weight="700" font-style="normal"
 >discussion</text>
</g>

<g fill="#5319e7" fill-opacity="1" stroke="none" transform="matrix(1,0,0,1,0,0)"
font-family="Arial" font-size="50" font-weight="700" font-style="normal"
>
<path vector-effect="non-scaling-stroke" fill-rule="evenodd" d="M784,18 L912,18 C915.312,18 918,20.688 918,24 L918,112 C918,115.312 915.312,118 912,118 L784,118 C780.688,118 778,115.312 778,112 L778,24 C778,20.688 780.688,18 784,18 "/>
</g>

<g fill="#ffffff" fill-opacity="1" stroke="#ffffff" stroke-opacity="1" stroke-width="1" stroke-linecap="square" stroke-linejoin="bevel" transform="matrix(1,0,0,1,0,0)"
font-family="Arial" font-size="50" font-weight="700" font-style="normal"
>
<text fill="#ffffff" fill-opacity="1" stroke="none" xml:space="preserve" x="803" y="85" font-family="Arial" font-size="50" font-weight="700" font-style="normal"
 >poll</text>
</g>

<g fill="#cc317c" fill-opacity="1" stroke="none" transform="matrix(1,0,0,1,0,0)"
font-family="Arial" font-size="50" font-weight="700" font-style="normal"
>
<path vector-effect="non-scaling-stroke" fill-rule="evenodd" d="M24,138 L273,138 C276.312,138 279,140.688 279,144 L279,232 C279,235.312 276.312,238 273,238 L24,238 C20.688,238 18,235.312 18,232 L18,144 C18,140.688 20.688,138 24,138 "/>
</g>

<g fill="#ffffff" fill-opacity="1" stroke="#ffffff" stroke-opacity="1" stroke-width="1" stroke-linecap="square" stroke-linejoin="bevel" transform="matrix(1,0,0,1,0,0)"
font-family="Arial" font-size="50" font-weight="700" font-style="normal"
>
<text fill="#ffffff" fill-opacity="1" stroke="none" xml:space="preserve" x="43" y="205" font-family="Arial" font-size="50" font-weight="700" font-style="normal"
 >question</text>
</g>

<g fill="#a2eeef" fill-opacity="1" stroke="none" transform="matrix(1,0,0,1,0,0)"
font-family="Arial" font-size="50" font-weight="700" font-style="normal"
>
<path vector-effect="non-scaling-stroke" fill-rule="evenodd" d="M305,138 L668,138 C671.312,138 674,140.688 674,144 L674,232 C674,235.312 671.312,238 668,238 L305,238 C301.688,238 299,235.312 299,232 L299,144 C299,140.688 301.688,138 305,138 "/>
</g>

<g fill="#000000" fill-opacity="1" stroke="#000000" stroke-opacity="1" stroke-width="1" stroke-linecap="square" stroke-linejoin="bevel" transform="matrix(1,0,0,1,0,0)"
font-family="Arial" font-size="50" font-weight="700" font-style="normal"
>
<text fill="#000000" fill-opacity="1" stroke="none" xml:space="preserve" x="324" y="205" font-family="Arial" font-size="50" font-weight="700" font-style="normal"
 >enhancement</text>
</g>

<g fill="#a2eeef" fill-opacity="1" stroke="none" transform="matrix(1,0,0,1,0,0)"
font-family="Arial" font-size="50" font-weight="700" font-style="normal"
>
<path vector-effect="non-scaling-stroke" fill-rule="evenodd" d="M700,138 L828,138 C831.312,138 834,140.688 834,144 L834,232 C834,235.312 831.312,238 828,238 L700,238 C696.688,238 694,235.312 694,232 L694,144 C694,140.688 696.688,138 700,138 "/>
</g>

<g fill="#000000" fill-opacity="1" stroke="#000000" stroke-opacity="1" stroke-width="1" stroke-linecap="square" stroke-linejoin="bevel" transform="matrix(1,0,0,1,0,0)"
font-family="Arial" font-size="50" font-weight="700" font-style="normal"
>
<text fill="#000000" fill-opacity="1" stroke="none" xml:space="preserve" x="719" y="205" font-family="Arial" font-size="50" font-weight="700" font-style="normal"
 >test</text>
</g>

<g fill="#a2eeef" fill-opacity="1" stroke="none" transform="matrix(1,0,0,1,0,0)"
font-family="Arial" font-size="50" font-weight="700" font-style="normal"
>
<path vector-effect="non-scaling-stroke" fill-rule="evenodd" d="M24,258 L330,258 C333.312,258 336,260.688 336,264 L336,352 C336,355.312 333.312,358 330,358 L24,358 C20.688,358 18,355.312 18,352 L18,264 C18,260.688 20.688,258 24,258 "/>
</g>

<g fill="#000000" fill-opacity="1" stroke="#000000" stroke-opacity="1" stroke-width="1" stroke-linecap="square" stroke-linejoin="bevel" transform="matrix(1,0,0,1,0,0)"
font-family="Arial" font-size="50" font-weight="700" font-style="normal"
>
<text fill="#000000" fill-opacity="1" stroke="none" xml:space="preserve" x="43" y="325" font-family="Arial" font-size="50" font-weight="700" font-style="normal"
 >benchmark</text>
</g>

<g fill="#ffbc42" fill-opacity="1" stroke="none" transform="matrix(1,0,0,1,0,0)"
font-family="Arial" font-size="50" font-weight="700" font-style="normal"
>
<path vector-effect="non-scaling-stroke" fill-rule="evenodd" d="M362,258 L727,258 C730.312,258 733,260.688 733,264 L733,352 C733,355.312 730.312,358 727,358 L362,358 C358.688,358 356,355.312 356,352 L356,264 C356,260.688 358.688,258 362,258 "/>
</g>

<g fill="#000000" fill-opacity="1" stroke="#000000" stroke-opacity="1" stroke-width="1" stroke-linecap="square" stroke-linejoin="bevel" transform="matrix(1,0,0,1,0,0)"
font-family="Arial" font-size="50" font-weight="700" font-style="normal"
>
<text fill="#000000" fill-opacity="1" stroke="none" xml:space="preserve" x="381" y="325" font-family="Arial" font-size="50" font-weight="700" font-style="normal"
 >semver-major</text>
</g>

<g fill="#ffbc42" fill-opacity="1" stroke="none" transform="matrix(1,0,0,1,0,0)"
font-family="Arial" font-size="50" font-weight="700" font-style="normal"
>
<path vector-effect="non-scaling-stroke" fill-rule="evenodd" d="M24,378 L392,378 C395.312,378 398,380.688 398,384 L398,472 C398,475.312 395.312,478 392,478 L24,478 C20.688,478 18,475.312 18,472 L18,384 C18,380.688 20.688,378 24,378 "/>
</g>

<g fill="#000000" fill-opacity="1" stroke="#000000" stroke-opacity="1" stroke-width="1" stroke-linecap="square" stroke-linejoin="bevel" transform="matrix(1,0,0,1,0,0)"
font-family="Arial" font-size="50" font-weight="700" font-style="normal"
>
<text fill="#000000" fill-opacity="1" stroke="none" xml:space="preserve" x="43" y="445" font-family="Arial" font-size="50" font-weight="700" font-style="normal"
 >semver-minor</text>
</g>

<g fill="#ffbc42" fill-opacity="1" stroke="none" transform="matrix(1,0,0,1,0,0)"
font-family="Arial" font-size="50" font-weight="700" font-style="normal"
>
<path vector-effect="non-scaling-stroke" fill-rule="evenodd" d="M424,378 L788,378 C791.312,378 794,380.688 794,384 L794,472 C794,475.312 791.312,478 788,478 L424,478 C420.688,478 418,475.312 418,472 L418,384 C418,380.688 420.688,378 424,378 "/>
</g>

<g fill="#000000" fill-opacity="1" stroke="#000000" stroke-opacity="1" stroke-width="1" stroke-linecap="square" stroke-linejoin="bevel" transform="matrix(1,0,0,1,0,0)"
font-family="Arial" font-size="50" font-weight="700" font-style="normal"
>
<text fill="#000000" fill-opacity="1" stroke="none" xml:space="preserve" x="443" y="445" font-family="Arial" font-size="50" font-weight="700" font-style="normal"
 >semver-patch</text>
</g>

<g fill="#7057ff" fill-opacity="1" stroke="none" transform="matrix(1,0,0,1,0,0)"
font-family="Arial" font-size="50" font-weight="700" font-style="normal"
>
<path vector-effect="non-scaling-stroke" fill-rule="evenodd" d="M24,498 L438,498 C441.312,498 444,500.688 444,504 L444,592 C444,595.312 441.312,598 438,598 L24,598 C20.688,598 18,595.312 18,592 L18,504 C18,500.688 20.688,498 24,498 "/>
</g>

<g fill="#ffffff" fill-opacity="1" stroke="#ffffff" stroke-opacity="1" stroke-width="1" stroke-linecap="square" stroke-linejoin="bevel" transform="matrix(1,0,0,1,0,0)"
font-family="Arial" font-size="50" font-weight="700" font-style="normal"
>
<text fill="#ffffff" fill-opacity="1" stroke="none" xml:space="preserve" x="43" y="565" font-family="Arial" font-size="50" font-weight="700" font-style="normal"
 >good first issue</text>
</g>

<g fill="#7057ff" fill-opacity="1" stroke="none" transform="matrix(1,0,0,1,0,0)"
font-family="Arial" font-size="50" font-weight="700" font-style="normal"
>
<path vector-effect="non-scaling-stroke" fill-rule="evenodd" d="M470,498 L800,498 C803.312,498 806,500.688 806,504 L806,592 C806,595.312 803.312,598 800,598 L470,598 C466.688,598 464,595.312 464,592 L464,504 C464,500.688 466.688,498 470,498 "/>
</g>

<g fill="#ffffff" fill-opacity="1" stroke="#ffffff" stroke-opacity="1" stroke-width="1" stroke-linecap="square" stroke-linejoin="bevel" transform="matrix(1,0,0,1,0,0)"
font-family="Arial" font-size="50" font-weight="700" font-style="normal"
>
<text fill="#ffffff" fill-opacity="1" stroke="none" xml:space="preserve" x="489" y="565" font-family="Arial" font-size="50" font-weight="700" font-style="normal"
 >help wanted</text>
</g>

<g fill="#c7bdff" fill-opacity="1" stroke="none" transform="matrix(1,0,0,1,0,0)"
font-family="Arial" font-size="50" font-weight="700" font-style="normal"
>
<path vector-effect="non-scaling-stroke" fill-rule="evenodd" d="M24,618 L666,618 C669.312,618 672,620.688 672,624 L672,712 C672,715.312 669.312,718 666,718 L24,718 C20.688,718 18,715.312 18,712 L18,624 C18,620.688 20.688,618 24,618 "/>
</g>

<g fill="#000000" fill-opacity="1" stroke="#000000" stroke-opacity="1" stroke-width="1" stroke-linecap="square" stroke-linejoin="bevel" transform="matrix(1,0,0,1,0,0)"
font-family="Arial" font-size="50" font-weight="700" font-style="normal"
>
<text fill="#000000" fill-opacity="1" stroke="none" xml:space="preserve" x="43" y="685" font-family="Arial" font-size="50" font-weight="700" font-style="normal"
 >more information needed</text>
</g>

<g fill="#006b75" fill-opacity="1" stroke="none" transform="matrix(1,0,0,1,0,0)"
font-family="Arial" font-size="50" font-weight="700" font-style="normal"
>
<path vector-effect="non-scaling-stroke" fill-rule="evenodd" d="M24,738 L370,738 C373.312,738 376,740.688 376,744 L376,832 C376,835.312 373.312,838 370,838 L24,838 C20.688,838 18,835.312 18,832 L18,744 C18,740.688 20.688,738 24,738 "/>
</g>

<g fill="#ffffff" fill-opacity="1" stroke="#ffffff" stroke-opacity="1" stroke-width="1" stroke-linecap="square" stroke-linejoin="bevel" transform="matrix(1,0,0,1,0,0)"
font-family="Arial" font-size="50" font-weight="700" font-style="normal"
>
<text fill="#ffffff" fill-opacity="1" stroke="none" xml:space="preserve" x="43" y="805" font-family="Arial" font-size="50" font-weight="700" font-style="normal"
 >maintenance</text>
</g>

<g fill="#006b75" fill-opacity="1" stroke="none" transform="matrix(1,0,0,1,0,0)"
font-family="Arial" font-size="50" font-weight="700" font-style="normal"
>
<path vector-effect="non-scaling-stroke" fill-rule="evenodd" d="M402,738 L739,738 C742.312,738 745,740.688 745,744 L745,832 C745,835.312 742.312,838 739,838 L402,838 C398.688,838 396,835.312 396,832 L396,744 C396,740.688 398.688,738 402,738 "/>
</g>

<g fill="#ffffff" fill-opacity="1" stroke="#ffffff" stroke-opacity="1" stroke-width="1" stroke-linecap="square" stroke-linejoin="bevel" transform="matrix(1,0,0,1,0,0)"
font-family="Arial" font-size="50" font-weight="700" font-style="normal"
>
<text fill="#ffffff" fill-opacity="1" stroke="none" xml:space="preserve" x="421" y="805" font-family="Arial" font-size="50" font-weight="700" font-style="normal"
 >greenkeeper</text>
</g>

<g fill="#f08cb9" fill-opacity="1" stroke="none" transform="matrix(1,0,0,1,0,0)"
font-family="Arial" font-size="50" font-weight="700" font-style="normal"
>
<path vector-effect="non-scaling-stroke" fill-rule="evenodd" d="M771,738 L996,738 C999.312,738 1002,740.688 1002,744 L1002,832 C1002,835.312 999.312,838 996,838 L771,838 C767.688,838 765,835.312 765,832 L765,744 C765,740.688 767.688,738 771,738 "/>
</g>

<g fill="#000000" fill-opacity="1" stroke="#000000" stroke-opacity="1" stroke-width="1" stroke-linecap="square" stroke-linejoin="bevel" transform="matrix(1,0,0,1,0,0)"
font-family="Arial" font-size="50" font-weight="700" font-style="normal"
>
<text fill="#000000" fill-opacity="1" stroke="none" xml:space="preserve" x="790" y="805" font-family="Arial" font-size="50" font-weight="700" font-style="normal"
 >refactor</text>
</g>

<g fill="#f08cb9" fill-opacity="1" stroke="none" transform="matrix(1,0,0,1,0,0)"
font-family="Arial" font-size="50" font-weight="700" font-style="normal"
>
<path vector-effect="non-scaling-stroke" fill-rule="evenodd" d="M24,858 L253,858 C256.312,858 259,860.688 259,864 L259,952 C259,955.312 256.312,958 253,958 L24,958 C20.688,958 18,955.312 18,952 L18,864 C18,860.688 20.688,858 24,858 "/>
</g>

<g fill="#000000" fill-opacity="1" stroke="#000000" stroke-opacity="1" stroke-width="1" stroke-linecap="square" stroke-linejoin="bevel" transform="matrix(1,0,0,1,0,0)"
font-family="Arial" font-size="50" font-weight="700" font-style="normal"
>
<text fill="#000000" fill-opacity="1" stroke="none" xml:space="preserve" x="43" y="925" font-family="Arial" font-size="50" font-weight="700" font-style="normal"
 >cleanup</text>
</g>

<g fill="#0052cc" fill-opacity="1" stroke="none" transform="matrix(1,0,0,1,0,0)"
font-family="Arial" font-size="50" font-weight="700" font-style="normal"
>
<path vector-effect="non-scaling-stroke" fill-rule="evenodd" d="M285,858 L685,858 C688.312,858 691,860.688 691,864 L691,952 C691,955.312 688.312,958 685,958 L285,958 C281.688,958 279,955.312 279,952 L279,864 C279,860.688 281.688,858 285,858 "/>
</g>

<g fill="#ffffff" fill-opacity="1" stroke="#ffffff" stroke-opacity="1" stroke-width="1" stroke-linecap="square" stroke-linejoin="bevel" transform="matrix(1,0,0,1,0,0)"
font-family="Arial" font-size="50" font-weight="700" font-style="normal"
>
<text fill="#ffffff" fill-opacity="1" stroke="none" xml:space="preserve" x="304" y="925" font-family="Arial" font-size="50" font-weight="700" font-style="normal"
 >documentation</text>
</g>

<g fill="#0052cc" fill-opacity="1" stroke="none" transform="matrix(1,0,0,1,0,0)"
font-family="Arial" font-size="50" font-weight="700" font-style="normal"
>
<path vector-effect="non-scaling-stroke" fill-rule="evenodd" d="M24,978 L410,978 C413.312,978 416,980.688 416,984 L416,1072 C416,1075.31 413.312,1078 410,1078 L24,1078 C20.688,1078 18,1075.31 18,1072 L18,984 C18,980.688 20.688,978 24,978 "/>
</g>

<g fill="#ffffff" fill-opacity="1" stroke="#ffffff" stroke-opacity="1" stroke-width="1" stroke-linecap="square" stroke-linejoin="bevel" transform="matrix(1,0,0,1,0,0)"
font-family="Arial" font-size="50" font-weight="700" font-style="normal"
>
<text fill="#ffffff" fill-opacity="1" stroke="none" xml:space="preserve" x="43" y="1045" font-family="Arial" font-size="50" font-weight="700" font-style="normal"
 >upgrade guide</text>
</g>

<g fill="#292f36" fill-opacity="1" stroke="none" transform="matrix(1,0,0,1,0,0)"
font-family="Arial" font-size="50" font-weight="700" font-style="normal"
>
<path vector-effect="non-scaling-stroke" fill-rule="evenodd" d="M442,978 L642,978 C645.312,978 648,980.688 648,984 L648,1072 C648,1075.31 645.312,1078 642,1078 L442,1078 C438.688,1078 436,1075.31 436,1072 L436,984 C436,980.688 438.688,978 442,978 "/>
</g>

<g fill="#ffffff" fill-opacity="1" stroke="#ffffff" stroke-opacity="1" stroke-width="1" stroke-linecap="square" stroke-linejoin="bevel" transform="matrix(1,0,0,1,0,0)"
font-family="Arial" font-size="50" font-weight="700" font-style="normal"
>
<text fill="#ffffff" fill-opacity="1" stroke="none" xml:space="preserve" x="461" y="1045" font-family="Arial" font-size="50" font-weight="700" font-style="normal"
 >critical</text>
</g>

<g fill="#292f36" fill-opacity="1" stroke="none" transform="matrix(1,0,0,1,0,0)"
font-family="Arial" font-size="50" font-weight="700" font-style="normal"
>
<path vector-effect="non-scaling-stroke" fill-rule="evenodd" d="M674,978 L903,978 C906.312,978 909,980.688 909,984 L909,1072 C909,1075.31 906.312,1078 903,1078 L674,1078 C670.688,1078 668,1075.31 668,1072 L668,984 C668,980.688 670.688,978 674,978 "/>
</g>

<g fill="#ffffff" fill-opacity="1" stroke="#ffffff" stroke-opacity="1" stroke-width="1" stroke-linecap="square" stroke-linejoin="bevel" transform="matrix(1,0,0,1,0,0)"
font-family="Arial" font-size="50" font-weight="700" font-style="normal"
>
<text fill="#ffffff" fill-opacity="1" stroke="none" xml:space="preserve" x="693" y="1045" font-family="Arial" font-size="50" font-weight="700" font-style="normal"
 >blocked</text>
</g>

<g fill="#efefef" fill-opacity="1" stroke="none" transform="matrix(1,0,0,1,0,0)"
font-family="Arial" font-size="50" font-weight="700" font-style="normal"
>
<path vector-effect="non-scaling-stroke" fill-rule="evenodd" d="M24,1098 L222,1098 C225.312,1098 228,1100.69 228,1104 L228,1192 C228,1195.31 225.312,1198 222,1198 L24,1198 C20.688,1198 18,1195.31 18,1192 L18,1104 C18,1100.69 20.688,1098 24,1098 "/>
</g>

<g fill="#000000" fill-opacity="1" stroke="#000000" stroke-opacity="1" stroke-width="1" stroke-linecap="square" stroke-linejoin="bevel" transform="matrix(1,0,0,1,0,0)"
font-family="Arial" font-size="50" font-weight="700" font-style="normal"
>
<text fill="#000000" fill-opacity="1" stroke="none" xml:space="preserve" x="43" y="1165" font-family="Arial" font-size="50" font-weight="700" font-style="normal"
 >invalid</text>
</g>

<g fill="#efefef" fill-opacity="1" stroke="none" transform="matrix(1,0,0,1,0,0)"
font-family="Arial" font-size="50" font-weight="700" font-style="normal"
>
<path vector-effect="non-scaling-stroke" fill-rule="evenodd" d="M254,1098 L514,1098 C517.312,1098 520,1100.69 520,1104 L520,1192 C520,1195.31 517.312,1198 514,1198 L254,1198 C250.688,1198 248,1195.31 248,1192 L248,1104 C248,1100.69 250.688,1098 254,1098 "/>
</g>

<g fill="#000000" fill-opacity="1" stroke="#000000" stroke-opacity="1" stroke-width="1" stroke-linecap="square" stroke-linejoin="bevel" transform="matrix(1,0,0,1,0,0)"
font-family="Arial" font-size="50" font-weight="700" font-style="normal"
>
<text fill="#000000" fill-opacity="1" stroke="none" xml:space="preserve" x="273" y="1165" font-family="Arial" font-size="50" font-weight="700" font-style="normal"
 >duplicate</text>
</g>

<g fill="#efefef" fill-opacity="1" stroke="none" transform="matrix(1,0,0,1,0,0)"
font-family="Arial" font-size="50" font-weight="700" font-style="normal"
>
<path vector-effect="non-scaling-stroke" fill-rule="evenodd" d="M546,1098 L699,1098 C702.312,1098 705,1100.69 705,1104 L705,1192 C705,1195.31 702.312,1198 699,1198 L546,1198 C542.688,1198 540,1195.31 540,1192 L540,1104 C540,1100.69 542.688,1098 546,1098 "/>
</g>

<g fill="#000000" fill-opacity="1" stroke="#000000" stroke-opacity="1" stroke-width="1" stroke-linecap="square" stroke-linejoin="bevel" transform="matrix(1,0,0,1,0,0)"
font-family="Arial" font-size="50" font-weight="700" font-style="normal"
>
<text fill="#000000" fill-opacity="1" stroke="none" xml:space="preserve" x="565" y="1165" font-family="Arial" font-size="50" font-weight="700" font-style="normal"
 >stale</text>
</g>

<g fill="#efefef" fill-opacity="1" stroke="none" transform="matrix(1,0,0,1,0,0)"
font-family="Arial" font-size="50" font-weight="700" font-style="normal"
>
<path vector-effect="non-scaling-stroke" fill-rule="evenodd" d="M731,1098 L946,1098 C949.312,1098 952,1100.69 952,1104 L952,1192 C952,1195.31 949.312,1198 946,1198 L731,1198 C727.688,1198 725,1195.31 725,1192 L725,1104 C725,1100.69 727.688,1098 731,1098 "/>
</g>

<g fill="#000000" fill-opacity="1" stroke="#000000" stroke-opacity="1" stroke-width="1" stroke-linecap="square" stroke-linejoin="bevel" transform="matrix(1,0,0,1,0,0)"
font-family="Arial" font-size="50" font-weight="700" font-style="normal"
>
<text fill="#000000" fill-opacity="1" stroke="none" xml:space="preserve" x="750" y="1165" font-family="Arial" font-size="50" font-weight="700" font-style="normal"
 >wontfix</text>
</g>
</g>
</svg>
